# Wavefront OBJ file automatically generated by Tiled2Unity

# Vertices (Count = 477)
v 0 -85 0
v -86 -85 0
v -86 0 0
v 0 0 0
v -172 -85 0
v -172 0 0
v -258 -85 0
v -258 0 0
v -344 -85 0
v -344 0 0
v -430 -85 0
v -430 0 0
v -516 -85 0
v -516 0 0
v -602 -85 0
v -602 0 0
v -688 -85 0
v -688 0 0
v -774 -85 0
v -774 0 0
v -860 -85 0
v -860 0 0
v -946 -85 0
v -946 0 0
v -1032 -85 0
v -1032 0 0
v -1118 -85 0
v -1118 0 0
v -1204 -85 0
v -1204 0 0
v -1290 -85 0
v -1290 0 0
v -1376 -85 0
v -1376 0 0
v -1462 -85 0
v -1462 0 0
v -1548 -85 0
v -1548 0 0
v -1634 -85 0
v -1634 0 0
v -1720 -85 0
v -1720 0 0
v -1806 -85 0
v -1806 0 0
v -1892 -85 0
v -1892 0 0
v -1978 -85 0
v -1978 0 0
v -2064 -85 0
v -2064 0 0
v -2150 -85 0
v -2150 0 0
v -2236 -85 0
v -2236 0 0
v -2322 -85 0
v -2322 0 0
v -2408 -85 0
v -2408 0 0
v -2494 -85 0
v -2494 0 0
v -2580 -85 0
v -2580 0 0
v -2666 -85 0
v -2666 0 0
v -2752 -85 0
v -2752 0 0
v -2838 -85 0
v -2838 0 0
v -2924 -85 0
v -2924 0 0
v -3010 -85 0
v -3010 0 0
v -3096 -85 0
v -3096 0 0
v -3182 -85 0
v -3182 0 0
v -3268 -85 0
v -3268 0 0
v -3354 -85 0
v -3354 0 0
v -3440 -85 0
v -3440 0 0
v 0 -170 0
v -86 -170 0
v -172 -170 0
v -258 -170 0
v -344 -170 0
v -430 -170 0
v -516 -170 0
v -1204 -170 0
v -1290 -170 0
v -1376 -170 0
v -1462 -170 0
v -1548 -170 0
v -1634 -170 0
v -1720 -170 0
v -1806 -170 0
v -1892 -170 0
v -1978 -170 0
v -2064 -170 0
v -2150 -170 0
v -2236 -170 0
v -2924 -170 0
v -3010 -170 0
v -3096 -170 0
v -3182 -170 0
v -3268 -170 0
v -3354 -170 0
v -3440 -170 0
v 0 -255 0
v -86 -255 0
v -172 -255 0
v -258 -255 0
v -344 -255 0
v -430 -255 0
v -516 -255 0
v -2924 -255 0
v -3010 -255 0
v -3096 -255 0
v -3182 -255 0
v -3268 -255 0
v -3354 -255 0
v -3440 -255 0
v 0 -340 0
v -86 -340 0
v -172 -340 0
v -258 -340 0
v -344 -340 0
v -430 -340 0
v -516 -340 0
v -2924 -340 0
v -3010 -340 0
v -3096 -340 0
v -3182 -340 0
v -3268 -340 0
v -3354 -340 0
v -3440 -340 0
v 0 -425 0
v -86 -425 0
v -172 -425 0
v -258 -425 0
v -344 -425 0
v -430 -425 0
v -516 -425 0
v -2924 -425 0
v -3010 -425 0
v -3096 -425 0
v -3182 -425 0
v -3268 -425 0
v -3354 -425 0
v -3440 -425 0
v 0 -510 0
v -86 -510 0
v -172 -510 0
v -258 -510 0
v -344 -510 0
v -430 -510 0
v -3010 -510 0
v -3096 -510 0
v -3182 -510 0
v -3268 -510 0
v -3354 -510 0
v -3440 -510 0
v 0 -595 0
v -86 -595 0
v -602 -595 0
v -688 -595 0
v -688 -510 0
v -602 -510 0
v -774 -595 0
v -774 -510 0
v -860 -595 0
v -860 -510 0
v -946 -595 0
v -946 -510 0
v -1032 -595 0
v -1032 -510 0
v -1118 -595 0
v -1118 -510 0
v -1204 -595 0
v -1204 -510 0
v -2236 -595 0
v -2322 -595 0
v -2322 -510 0
v -2236 -510 0
v -2408 -595 0
v -2408 -510 0
v -2494 -595 0
v -2494 -510 0
v -2580 -595 0
v -2580 -510 0
v -2666 -595 0
v -2666 -510 0
v -2752 -595 0
v -2752 -510 0
v -2838 -595 0
v -2838 -510 0
v -3354 -595 0
v -3440 -595 0
v 0 -680 0
v -86 -680 0
v -3354 -680 0
v -3440 -680 0
v 0 -765 0
v -86 -765 0
v -3354 -765 0
v -3440 -765 0
v 0 -850 0
v -86 -850 0
v -172 -850 0
v -258 -850 0
v -258 -765 0
v -172 -765 0
v -344 -850 0
v -344 -765 0
v -430 -850 0
v -430 -765 0
v -3010 -850 0
v -3096 -850 0
v -3096 -765 0
v -3010 -765 0
v -3182 -850 0
v -3182 -765 0
v -3268 -850 0
v -3268 -765 0
v -3354 -850 0
v -3440 -850 0
v 0 -935 0
v -86 -935 0
v -172 -935 0
v -258 -935 0
v -344 -935 0
v -430 -935 0
v -516 -935 0
v -602 -935 0
v -602 -850 0
v -516 -850 0
v -688 -935 0
v -688 -850 0
v -774 -935 0
v -774 -850 0
v -2666 -935 0
v -2752 -935 0
v -2752 -850 0
v -2666 -850 0
v -2838 -935 0
v -2838 -850 0
v -2924 -935 0
v -2924 -850 0
v -3010 -935 0
v -3096 -935 0
v -3182 -935 0
v -3268 -935 0
v -3354 -935 0
v -3440 -935 0
v 0 -1020 0
v -86 -1020 0
v -3354 -1020 0
v -3440 -1020 0
v 0 -1105 0
v -86 -1105 0
v -3354 -1105 0
v -3440 -1105 0
v 0 -1190 0
v -86 -1190 0
v -774 -1190 0
v -860 -1190 0
v -860 -1105 0
v -774 -1105 0
v -946 -1190 0
v -946 -1105 0
v -1032 -1190 0
v -1032 -1105 0
v -1118 -1190 0
v -1118 -1105 0
v -2322 -1190 0
v -2408 -1190 0
v -2408 -1105 0
v -2322 -1105 0
v -2494 -1190 0
v -2494 -1105 0
v -2580 -1190 0
v -2580 -1105 0
v -2666 -1190 0
v -2666 -1105 0
v -3354 -1190 0
v -3440 -1190 0
v 0 -1275 0
v -86 -1275 0
v -3354 -1275 0
v -3440 -1275 0
v 0 -1360 0
v -86 -1360 0
v -1548 -1360 0
v -1634 -1360 0
v -1634 -1275 0
v -1548 -1275 0
v -1720 -1360 0
v -1720 -1275 0
v -1806 -1360 0
v -1806 -1275 0
v -1892 -1360 0
v -1892 -1275 0
v -3354 -1360 0
v -3440 -1360 0
v 0 -1445 0
v -86 -1445 0
v -1204 -1445 0
v -1290 -1445 0
v -1290 -1360 0
v -1204 -1360 0
v -1376 -1445 0
v -1376 -1360 0
v -1462 -1445 0
v -1462 -1360 0
v -1548 -1445 0
v -1634 -1445 0
v -1720 -1445 0
v -1806 -1445 0
v -1892 -1445 0
v -1978 -1445 0
v -1978 -1360 0
v -2064 -1445 0
v -2064 -1360 0
v -2150 -1445 0
v -2150 -1360 0
v -2236 -1445 0
v -2236 -1360 0
v -3354 -1445 0
v -3440 -1445 0
v 0 -1530 0
v -86 -1530 0
v -172 -1530 0
v -172 -1445 0
v -258 -1530 0
v -258 -1445 0
v -344 -1530 0
v -344 -1445 0
v -430 -1530 0
v -430 -1445 0
v -516 -1530 0
v -516 -1445 0
v -602 -1530 0
v -602 -1445 0
v -688 -1530 0
v -688 -1445 0
v -774 -1530 0
v -774 -1445 0
v -860 -1530 0
v -860 -1445 0
v -946 -1530 0
v -946 -1445 0
v -1032 -1530 0
v -1032 -1445 0
v -1118 -1530 0
v -1118 -1445 0
v -1204 -1530 0
v -1290 -1530 0
v -1376 -1530 0
v -1462 -1530 0
v -1548 -1530 0
v -1634 -1530 0
v -1720 -1530 0
v -1806 -1530 0
v -1892 -1530 0
v -1978 -1530 0
v -2064 -1530 0
v -2150 -1530 0
v -2236 -1530 0
v -2322 -1530 0
v -2322 -1445 0
v -2408 -1530 0
v -2408 -1445 0
v -2494 -1530 0
v -2494 -1445 0
v -2580 -1530 0
v -2580 -1445 0
v -2666 -1530 0
v -2666 -1445 0
v -2752 -1530 0
v -2752 -1445 0
v -2838 -1530 0
v -2838 -1445 0
v -2924 -1530 0
v -2924 -1445 0
v -3010 -1530 0
v -3010 -1445 0
v -3096 -1530 0
v -3096 -1445 0
v -3182 -1530 0
v -3182 -1445 0
v -3268 -1530 0
v -3268 -1445 0
v -3354 -1530 0
v -3440 -1530 0
v 0 -1615 0
v -86 -1615 0
v -172 -1615 0
v -258 -1615 0
v -344 -1615 0
v -430 -1615 0
v -516 -1615 0
v -602 -1615 0
v -688 -1615 0
v -774 -1615 0
v -860 -1615 0
v -946 -1615 0
v -1032 -1615 0
v -1118 -1615 0
v -1204 -1615 0
v -1290 -1615 0
v -1376 -1615 0
v -1462 -1615 0
v -1548 -1615 0
v -1634 -1615 0
v -1720 -1615 0
v -1806 -1615 0
v -1892 -1615 0
v -1978 -1615 0
v -2064 -1615 0
v -2150 -1615 0
v -2236 -1615 0
v -2322 -1615 0
v -2408 -1615 0
v -2494 -1615 0
v -2580 -1615 0
v -2666 -1615 0
v -2752 -1615 0
v -2838 -1615 0
v -2924 -1615 0
v -3010 -1615 0
v -3096 -1615 0
v -3182 -1615 0
v -3268 -1615 0
v -3354 -1615 0
v -3440 -1615 0
v 0 -1700 0
v -86 -1700 0
v -172 -1700 0
v -258 -1700 0
v -344 -1700 0
v -430 -1700 0
v -516 -1700 0
v -602 -1700 0
v -688 -1700 0
v -774 -1700 0
v -860 -1700 0
v -946 -1700 0
v -1032 -1700 0
v -1118 -1700 0
v -1204 -1700 0
v -1290 -1700 0
v -1376 -1700 0
v -1462 -1700 0
v -1548 -1700 0
v -1634 -1700 0
v -1720 -1700 0
v -1806 -1700 0
v -1892 -1700 0
v -1978 -1700 0
v -2064 -1700 0
v -2150 -1700 0
v -2236 -1700 0
v -2322 -1700 0
v -2408 -1700 0
v -2494 -1700 0
v -2580 -1700 0
v -2666 -1700 0
v -2752 -1700 0
v -2838 -1700 0
v -2924 -1700 0
v -3010 -1700 0
v -3096 -1700 0
v -3182 -1700 0
v -3268 -1700 0
v -3354 -1700 0
v -3440 -1700 0

# Texture cooridinates (Count = 44)
vt 0.1647711 0.6743494
vt 0.3294818 0.6743494
vt 0.3294818 0.8371449
vt 0.1647711 0.8371449
vt 0.3285242 0.02205074
vt 0.3285242 0.1867615
vt 0.1657287 0.1867615
vt 0.1657287 0.02205074
vt 0.6589837 0.9999802
vt 0.494273 0.9999802
vt 0.494273 0.8371846
vt 0.6589837 0.8371846
vt 0.3294818 0.1858039
vt 0.1647711 0.1858039
vt 0.1647711 0.02300841
vt 0.3294818 0.02300841
vt 2.01112E-05 0.1858436
vt 0.1647308 0.1858436
vt 0.1647308 0.3486391
vt 2.01112E-05 0.3486391
vt 0.1647711 0.1858436
vt 0.3294818 0.1858436
vt 0.3294818 0.3486391
vt 0.1647711 0.3486391
vt 0.329522 0.1858436
vt 0.4942328 0.1858436
vt 0.4942328 0.3486391
vt 0.329522 0.3486391
vt 2.01112E-05 0.8371846
vt 0.1647308 0.8371846
vt 0.1647308 0.9999802
vt 2.01112E-05 0.9999802
vt 0.1647711 0.8371846
vt 0.3294818 0.8371846
vt 0.3294818 0.9999802
vt 0.1647711 0.9999802
vt 2.01112E-05 0.5115141
vt 0.1647308 0.5115141
vt 0.1647308 0.6743096
vt 2.01112E-05 0.6743096
vt 0.494273 0.6743494
vt 0.6589837 0.6743494
vt 0.6589837 0.8371449
vt 0.494273 0.8371449

# Normal
vn 0 0 -1

# Groups (Count = 1)

g mesh_0001
f 1/1/1 2/2/1 3/3/1 4/4/1
f 2/1/1 5/2/1 6/3/1 3/4/1
f 5/1/1 7/2/1 8/3/1 6/4/1
f 7/1/1 9/2/1 10/3/1 8/4/1
f 9/1/1 11/2/1 12/3/1 10/4/1
f 11/1/1 13/2/1 14/3/1 12/4/1
f 13/1/1 15/2/1 16/3/1 14/4/1
f 15/1/1 17/2/1 18/3/1 16/4/1
f 17/1/1 19/2/1 20/3/1 18/4/1
f 19/1/1 21/2/1 22/3/1 20/4/1
f 21/1/1 23/2/1 24/3/1 22/4/1
f 23/1/1 25/2/1 26/3/1 24/4/1
f 25/1/1 27/2/1 28/3/1 26/4/1
f 27/1/1 29/2/1 30/3/1 28/4/1
f 29/1/1 31/2/1 32/3/1 30/4/1
f 31/1/1 33/2/1 34/3/1 32/4/1
f 33/1/1 35/2/1 36/3/1 34/4/1
f 35/1/1 37/2/1 38/3/1 36/4/1
f 37/1/1 39/2/1 40/3/1 38/4/1
f 39/1/1 41/2/1 42/3/1 40/4/1
f 41/1/1 43/2/1 44/3/1 42/4/1
f 43/1/1 45/2/1 46/3/1 44/4/1
f 45/1/1 47/2/1 48/3/1 46/4/1
f 47/1/1 49/2/1 50/3/1 48/4/1
f 49/1/1 51/2/1 52/3/1 50/4/1
f 51/1/1 53/2/1 54/3/1 52/4/1
f 53/1/1 55/2/1 56/3/1 54/4/1
f 55/1/1 57/2/1 58/3/1 56/4/1
f 57/1/1 59/2/1 60/3/1 58/4/1
f 59/1/1 61/2/1 62/3/1 60/4/1
f 61/1/1 63/2/1 64/3/1 62/4/1
f 63/1/1 65/2/1 66/3/1 64/4/1
f 65/1/1 67/2/1 68/3/1 66/4/1
f 67/1/1 69/2/1 70/3/1 68/4/1
f 69/1/1 71/2/1 72/3/1 70/4/1
f 71/1/1 73/2/1 74/3/1 72/4/1
f 73/1/1 75/2/1 76/3/1 74/4/1
f 75/1/1 77/2/1 78/3/1 76/4/1
f 77/1/1 79/2/1 80/3/1 78/4/1
f 79/1/1 81/2/1 82/3/1 80/4/1
f 83/1/1 84/2/1 2/3/1 1/4/1
f 84/1/1 85/2/1 5/3/1 2/4/1
f 85/1/1 86/2/1 7/3/1 5/4/1
f 86/1/1 87/2/1 9/3/1 7/4/1
f 87/1/1 88/2/1 11/3/1 9/4/1
f 88/5/1 89/6/1 13/7/1 11/8/1
f 90/1/1 91/2/1 31/3/1 29/4/1
f 91/1/1 92/2/1 33/3/1 31/4/1
f 92/1/1 93/2/1 35/3/1 33/4/1
f 93/1/1 94/2/1 37/3/1 35/4/1
f 94/9/1 95/10/1 39/11/1 37/12/1
f 95/9/1 96/10/1 41/11/1 39/12/1
f 96/9/1 97/10/1 43/11/1 41/12/1
f 97/9/1 98/10/1 45/11/1 43/12/1
f 98/1/1 99/2/1 47/3/1 45/4/1
f 99/1/1 100/2/1 49/3/1 47/4/1
f 100/1/1 101/2/1 51/3/1 49/4/1
f 101/1/1 102/2/1 53/3/1 51/4/1
f 103/6/1 104/5/1 71/8/1 69/7/1
f 104/2/1 105/1/1 73/4/1 71/3/1
f 105/2/1 106/1/1 75/4/1 73/3/1
f 106/2/1 107/1/1 77/4/1 75/3/1
f 107/2/1 108/1/1 79/4/1 77/3/1
f 108/1/1 109/2/1 81/3/1 79/4/1
f 110/1/1 111/2/1 84/3/1 83/4/1
f 111/1/1 112/2/1 85/3/1 84/4/1
f 112/1/1 113/2/1 86/3/1 85/4/1
f 113/1/1 114/2/1 87/3/1 86/4/1
f 114/1/1 115/2/1 88/3/1 87/4/1
f 115/5/1 116/6/1 89/7/1 88/8/1
f 117/6/1 118/5/1 104/8/1 103/7/1
f 118/2/1 119/1/1 105/4/1 104/3/1
f 119/2/1 120/1/1 106/4/1 105/3/1
f 120/2/1 121/1/1 107/4/1 106/3/1
f 121/2/1 122/1/1 108/4/1 107/3/1
f 122/1/1 123/2/1 109/3/1 108/4/1
f 124/1/1 125/2/1 111/3/1 110/4/1
f 125/1/1 126/2/1 112/3/1 111/4/1
f 126/1/1 127/2/1 113/3/1 112/4/1
f 127/1/1 128/2/1 114/3/1 113/4/1
f 128/1/1 129/2/1 115/3/1 114/4/1
f 129/5/1 130/6/1 116/7/1 115/8/1
f 131/6/1 132/5/1 118/8/1 117/7/1
f 132/2/1 133/1/1 119/4/1 118/3/1
f 133/2/1 134/1/1 120/4/1 119/3/1
f 134/2/1 135/1/1 121/4/1 120/3/1
f 135/2/1 136/1/1 122/4/1 121/3/1
f 136/1/1 137/2/1 123/3/1 122/4/1
f 138/1/1 139/2/1 125/3/1 124/4/1
f 139/1/1 140/2/1 126/3/1 125/4/1
f 140/1/1 141/2/1 127/3/1 126/4/1
f 141/1/1 142/2/1 128/3/1 127/4/1
f 142/1/1 143/2/1 129/3/1 128/4/1
f 143/5/1 144/6/1 130/7/1 129/8/1
f 145/6/1 146/5/1 132/8/1 131/7/1
f 146/2/1 147/1/1 133/4/1 132/3/1
f 147/2/1 148/1/1 134/4/1 133/3/1
f 148/2/1 149/1/1 135/4/1 134/3/1
f 149/2/1 150/1/1 136/4/1 135/3/1
f 150/1/1 151/2/1 137/3/1 136/4/1
f 152/1/1 153/2/1 139/3/1 138/4/1
f 153/13/1 154/14/1 140/15/1 139/16/1
f 154/13/1 155/14/1 141/15/1 140/16/1
f 155/13/1 156/14/1 142/15/1 141/16/1
f 156/13/1 157/14/1 143/15/1 142/16/1
f 158/14/1 159/13/1 147/16/1 146/15/1
f 159/14/1 160/13/1 148/16/1 147/15/1
f 160/14/1 161/13/1 149/16/1 148/15/1
f 161/14/1 162/13/1 150/16/1 149/15/1
f 162/1/1 163/2/1 151/3/1 150/4/1
f 164/1/1 165/2/1 153/3/1 152/4/1
f 166/17/1 167/18/1 168/19/1 169/20/1
f 167/21/1 170/22/1 171/23/1 168/24/1
f 170/21/1 172/22/1 173/23/1 171/24/1
f 172/21/1 174/22/1 175/23/1 173/24/1
f 174/21/1 176/22/1 177/23/1 175/24/1
f 176/21/1 178/22/1 179/23/1 177/24/1
f 178/25/1 180/26/1 181/27/1 179/28/1
f 182/26/1 183/25/1 184/28/1 185/27/1
f 183/22/1 186/21/1 187/24/1 184/23/1
f 186/22/1 188/21/1 189/24/1 187/23/1
f 188/22/1 190/21/1 191/24/1 189/23/1
f 190/22/1 192/21/1 193/24/1 191/23/1
f 192/22/1 194/21/1 195/24/1 193/23/1
f 194/25/1 196/26/1 197/27/1 195/28/1
f 198/1/1 199/2/1 163/3/1 162/4/1
f 200/1/1 201/2/1 165/3/1 164/4/1
f 202/1/1 203/2/1 199/3/1 198/4/1
f 204/1/1 205/2/1 201/3/1 200/4/1
f 206/1/1 207/2/1 203/3/1 202/4/1
f 208/1/1 209/2/1 205/3/1 204/4/1
f 210/15/1 211/16/1 212/13/1 213/14/1
f 211/15/1 214/16/1 215/13/1 212/14/1
f 214/15/1 216/16/1 217/13/1 215/14/1
f 218/16/1 219/15/1 220/14/1 221/13/1
f 219/16/1 222/15/1 223/14/1 220/13/1
f 222/16/1 224/15/1 225/14/1 223/13/1
f 226/1/1 227/2/1 207/3/1 206/4/1
f 228/1/1 229/2/1 209/3/1 208/4/1
f 230/1/1 231/2/1 211/3/1 210/4/1
f 231/1/1 232/2/1 214/3/1 211/4/1
f 232/1/1 233/2/1 216/3/1 214/4/1
f 234/17/1 235/18/1 236/19/1 237/20/1
f 235/21/1 238/22/1 239/23/1 236/24/1
f 238/25/1 240/26/1 241/27/1 239/28/1
f 242/26/1 243/25/1 244/28/1 245/27/1
f 243/22/1 246/21/1 247/24/1 244/23/1
f 246/18/1 248/17/1 249/20/1 247/19/1
f 250/2/1 251/1/1 219/4/1 218/3/1
f 251/2/1 252/1/1 222/4/1 219/3/1
f 252/2/1 253/1/1 224/4/1 222/3/1
f 254/1/1 255/2/1 227/3/1 226/4/1
f 256/1/1 257/2/1 229/3/1 228/4/1
f 258/1/1 259/2/1 255/3/1 254/4/1
f 260/1/1 261/2/1 257/3/1 256/4/1
f 262/1/1 263/2/1 259/3/1 258/4/1
f 264/1/1 265/2/1 261/3/1 260/4/1
f 266/17/1 267/18/1 268/19/1 269/20/1
f 267/21/1 270/22/1 271/23/1 268/24/1
f 270/21/1 272/22/1 273/23/1 271/24/1
f 272/25/1 274/26/1 275/27/1 273/28/1
f 276/26/1 277/25/1 278/28/1 279/27/1
f 277/22/1 280/21/1 281/24/1 278/23/1
f 280/22/1 282/21/1 283/24/1 281/23/1
f 282/18/1 284/17/1 285/20/1 283/19/1
f 286/1/1 287/2/1 263/3/1 262/4/1
f 288/1/1 289/2/1 265/3/1 264/4/1
f 290/1/1 291/2/1 287/3/1 286/4/1
f 292/1/1 293/2/1 289/3/1 288/4/1
f 294/29/1 295/30/1 296/31/1 297/32/1
f 295/33/1 298/34/1 299/35/1 296/36/1
f 298/34/1 300/33/1 301/36/1 299/35/1
f 300/30/1 302/29/1 303/32/1 301/31/1
f 304/1/1 305/2/1 291/3/1 290/4/1
f 306/1/1 307/2/1 293/3/1 292/4/1
f 308/29/1 309/30/1 310/31/1 311/32/1
f 309/33/1 312/34/1 313/35/1 310/36/1
f 312/33/1 314/34/1 315/35/1 313/36/1
f 314/33/1 316/34/1 294/35/1 315/36/1
f 316/37/1 317/38/1 295/39/1 294/40/1
f 317/1/1 318/2/1 298/3/1 295/4/1
f 318/2/1 319/1/1 300/4/1 298/3/1
f 319/38/1 320/37/1 302/40/1 300/39/1
f 320/34/1 321/33/1 322/36/1 302/35/1
f 321/34/1 323/33/1 324/36/1 322/35/1
f 323/34/1 325/33/1 326/36/1 324/35/1
f 325/30/1 327/29/1 328/32/1 326/31/1
f 329/1/1 330/2/1 305/3/1 304/4/1
f 331/1/1 332/2/1 307/3/1 306/4/1
f 332/11/1 333/12/1 334/9/1 307/10/1
f 333/11/1 335/12/1 336/9/1 334/10/1
f 335/11/1 337/12/1 338/9/1 336/10/1
f 337/11/1 339/12/1 340/9/1 338/10/1
f 339/11/1 341/12/1 342/9/1 340/10/1
f 341/11/1 343/12/1 344/9/1 342/10/1
f 343/11/1 345/12/1 346/9/1 344/10/1
f 345/11/1 347/12/1 348/9/1 346/10/1
f 347/11/1 349/12/1 350/9/1 348/10/1
f 349/11/1 351/12/1 352/9/1 350/10/1
f 351/11/1 353/12/1 354/9/1 352/10/1
f 353/11/1 355/12/1 356/9/1 354/10/1
f 355/11/1 357/12/1 308/9/1 356/10/1
f 357/1/1 358/2/1 309/3/1 308/4/1
f 358/1/1 359/2/1 312/3/1 309/4/1
f 359/1/1 360/2/1 314/3/1 312/4/1
f 360/1/1 361/2/1 316/3/1 314/4/1
f 361/1/1 362/2/1 317/3/1 316/4/1
f 362/1/1 363/2/1 318/3/1 317/4/1
f 363/2/1 364/1/1 319/4/1 318/3/1
f 364/2/1 365/1/1 320/4/1 319/3/1
f 365/2/1 366/1/1 321/4/1 320/3/1
f 366/2/1 367/1/1 323/4/1 321/3/1
f 367/2/1 368/1/1 325/4/1 323/3/1
f 368/2/1 369/1/1 327/4/1 325/3/1
f 369/12/1 370/11/1 371/10/1 327/9/1
f 370/12/1 372/11/1 373/10/1 371/9/1
f 372/12/1 374/11/1 375/10/1 373/9/1
f 374/12/1 376/11/1 377/10/1 375/9/1
f 376/12/1 378/11/1 379/10/1 377/9/1
f 378/12/1 380/11/1 381/10/1 379/9/1
f 380/12/1 382/11/1 383/10/1 381/9/1
f 382/12/1 384/11/1 385/10/1 383/9/1
f 384/12/1 386/11/1 387/10/1 385/9/1
f 386/12/1 388/11/1 389/10/1 387/9/1
f 388/12/1 390/11/1 391/10/1 389/9/1
f 390/12/1 392/11/1 393/10/1 391/9/1
f 392/12/1 394/11/1 329/10/1 393/9/1
f 394/1/1 395/2/1 330/3/1 329/4/1
f 396/1/1 397/2/1 332/3/1 331/4/1
f 397/41/1 398/42/1 333/43/1 332/44/1
f 398/41/1 399/42/1 335/43/1 333/44/1
f 399/41/1 400/42/1 337/43/1 335/44/1
f 400/41/1 401/42/1 339/43/1 337/44/1
f 401/41/1 402/42/1 341/43/1 339/44/1
f 402/41/1 403/42/1 343/43/1 341/44/1
f 403/41/1 404/42/1 345/43/1 343/44/1
f 404/41/1 405/42/1 347/43/1 345/44/1
f 405/41/1 406/42/1 349/43/1 347/44/1
f 406/41/1 407/42/1 351/43/1 349/44/1
f 407/41/1 408/42/1 353/43/1 351/44/1
f 408/41/1 409/42/1 355/43/1 353/44/1
f 409/41/1 410/42/1 357/43/1 355/44/1
f 410/1/1 411/2/1 358/3/1 357/4/1
f 411/1/1 412/2/1 359/3/1 358/4/1
f 412/1/1 413/2/1 360/3/1 359/4/1
f 413/1/1 414/2/1 361/3/1 360/4/1
f 414/1/1 415/2/1 362/3/1 361/4/1
f 415/1/1 416/2/1 363/3/1 362/4/1
f 416/1/1 417/2/1 364/3/1 363/4/1
f 417/1/1 418/2/1 365/3/1 364/4/1
f 418/1/1 419/2/1 366/3/1 365/4/1
f 419/1/1 420/2/1 367/3/1 366/4/1
f 420/1/1 421/2/1 368/3/1 367/4/1
f 421/2/1 422/1/1 369/4/1 368/3/1
f 422/42/1 423/41/1 370/44/1 369/43/1
f 423/41/1 424/42/1 372/43/1 370/44/1
f 424/41/1 425/42/1 374/43/1 372/44/1
f 425/41/1 426/42/1 376/43/1 374/44/1
f 426/41/1 427/42/1 378/43/1 376/44/1
f 427/41/1 428/42/1 380/43/1 378/44/1
f 428/41/1 429/42/1 382/43/1 380/44/1
f 429/41/1 430/42/1 384/43/1 382/44/1
f 430/41/1 431/42/1 386/43/1 384/44/1
f 431/41/1 432/42/1 388/43/1 386/44/1
f 432/41/1 433/42/1 390/43/1 388/44/1
f 433/41/1 434/42/1 392/43/1 390/44/1
f 434/41/1 435/42/1 394/43/1 392/44/1
f 435/1/1 436/2/1 395/3/1 394/4/1
f 437/1/1 438/2/1 397/3/1 396/4/1
f 438/1/1 439/2/1 398/3/1 397/4/1
f 439/1/1 440/2/1 399/3/1 398/4/1
f 440/1/1 441/2/1 400/3/1 399/4/1
f 441/1/1 442/2/1 401/3/1 400/4/1
f 442/1/1 443/2/1 402/3/1 401/4/1
f 443/1/1 444/2/1 403/3/1 402/4/1
f 444/1/1 445/2/1 404/3/1 403/4/1
f 445/1/1 446/2/1 405/3/1 404/4/1
f 446/1/1 447/2/1 406/3/1 405/4/1
f 447/1/1 448/2/1 407/3/1 406/4/1
f 448/1/1 449/2/1 408/3/1 407/4/1
f 449/1/1 450/2/1 409/3/1 408/4/1
f 450/1/1 451/2/1 410/3/1 409/4/1
f 451/1/1 452/2/1 411/3/1 410/4/1
f 452/1/1 453/2/1 412/3/1 411/4/1
f 453/1/1 454/2/1 413/3/1 412/4/1
f 454/1/1 455/2/1 414/3/1 413/4/1
f 455/1/1 456/2/1 415/3/1 414/4/1
f 456/1/1 457/2/1 416/3/1 415/4/1
f 457/1/1 458/2/1 417/3/1 416/4/1
f 458/1/1 459/2/1 418/3/1 417/4/1
f 459/1/1 460/2/1 419/3/1 418/4/1
f 460/1/1 461/2/1 420/3/1 419/4/1
f 461/1/1 462/2/1 421/3/1 420/4/1
f 462/1/1 463/2/1 422/3/1 421/4/1
f 463/1/1 464/2/1 423/3/1 422/4/1
f 464/1/1 465/2/1 424/3/1 423/4/1
f 465/1/1 466/2/1 425/3/1 424/4/1
f 466/1/1 467/2/1 426/3/1 425/4/1
f 467/1/1 468/2/1 427/3/1 426/4/1
f 468/1/1 469/2/1 428/3/1 427/4/1
f 469/1/1 470/2/1 429/3/1 428/4/1
f 470/1/1 471/2/1 430/3/1 429/4/1
f 471/1/1 472/2/1 431/3/1 430/4/1
f 472/1/1 473/2/1 432/3/1 431/4/1
f 473/1/1 474/2/1 433/3/1 432/4/1
f 474/1/1 475/2/1 434/3/1 433/4/1
f 475/1/1 476/2/1 435/3/1 434/4/1
f 476/1/1 477/2/1 436/3/1 435/4/1

